<svg xmlns="http://www.w3.org/2000/svg" xmlns:xlink="http://www.w3.org/1999/xlink" xmlns:svgjs="http://svgjs.com/svgjs"
    width="263" height="132"><svg xmlns="http://www.w3.org/2000/svg" width="288" height="288">
        <defs>
            <linearGradient id="a" x1="111.667" x2="20.246" y1="111.667" y2="20.246" gradientUnits="userSpaceOnUse">
                <stop offset="0" stop-color="#b31217" class="stopColor07758e svgShape" />
                <stop offset="1" stop-color="#e52d27" class="stopColor087f95 svgShape" />
            </linearGradient>
            <linearGradient id="b" x1="242.667" x2="151.246" y1="111.667" y2="20.246" gradientUnits="userSpaceOnUse">
                <stop offset="0" stop-color="#099cbe" class="stopColor099cbe svgShape" />
                <stop offset="1" stop-color="#fff" class="stopColor0ba9c7 svgShape" />
            </linearGradient>
        </defs>
        <g data-name="Layer 2" class="color000 svgShape">
            <g data-name="Layer 1" class="color000 svgShape">
                <path fill="none" d="M0 0h263v132H0z" />
                <path opacity=".1" class="color000 svgShape" d="M32.587 60.711L46 74l-5 14-4-1-4.413-26.289z" />
                <circle cx="67" cy="67" r="80" fill="url(#a)" />
                <path d="M130.734 71.734L101 42l-46 1-13 46-5 1 40.046 40.046a65.01 65.01 0 0053.688-58.312z"
                    opacity=".2" class="color000 svgShape" />
                <path fill="#fff"
                    d="M71.101 85.371H70.9q-.633.52-1.51 1.312a13.814 13.814 0 01-2.057 1.514 14.633 14.633 0 01-2.445 1.254 7.625 7.625 0 01-2.877.533 7.886 7.886 0 01-6.545-2.998q-2.374-3-2.373-8.19a18.851 18.851 0 011.324-6.949 20.65 20.65 0 013.656-6.055 17.454 17.454 0 015.268-4.138 13.549 13.549 0 016.276-1.571 13.714 13.714 0 013.9.548 11.361 11.361 0 012.922 1.239l5.287-1.355.347.432-4.39 18.601q-.23.894-.474 2.178a11.26 11.26 0 00-.245 1.888 2.812 2.812 0 00.691 2.221 3.683 3.683 0 002.337.577 9.94 9.94 0 001.56-.173 9.291 9.291 0 001.557-.374l-.433 1.843q-2.598 1.037-3.868 1.498a9.1 9.1 0 01-3.088.461 4.45 4.45 0 01-3.29-1.21A4.6 4.6 0 0171.1 85.37zm4.152-18.225a7.998 7.998 0 00-.202-1.816 3.839 3.839 0 00-.836-1.616 3.998 3.998 0 00-1.585-1.154 6.467 6.467 0 00-2.536-.432 7.082 7.082 0 00-4.093 1.384 14.078 14.078 0 00-3.573 3.72 19.376 19.376 0 00-2.45 5.307 22.283 22.283 0 00-.75 9.43 7.977 7.977 0 00.776 2.48 3.983 3.983 0 001.581 1.703 5.117 5.117 0 002.617.605 7.395 7.395 0 003.378-.908 16.323 16.323 0 003.983-3.187z"
                    class="colorfff svgShape" />
                <path fill="#fff"
                    d="M103.028 65.367l-.25 1.065q-1.502.598-2.337.873a5.368 5.368 0 01-1.685.274 2.664 2.664 0 01-2.003-.69 2.36 2.36 0 01-.668-1.707 5.443 5.443 0 01.067-.808q.066-.441.217-1.04l1.643-6.21q.185-.716.293-1.3a5.377 5.377 0 00.108-.932 2.715 2.715 0 00-.529-1.765 1.904 1.904 0 00-1.568-.649 4.909 4.909 0 00-2.26.667 8.385 8.385 0 00-2.36 1.932l-2.84 12.22h-3.108l2.494-10.79.241-1.157a6.287 6.287 0 00.159-1.224 1.798 1.798 0 00-.317-1.249 1.838 1.838 0 00-1.27-.316 4.542 4.542 0 00-.936.125q-.569.124-.886.208l.25-1.065a17.313 17.313 0 012.308-.865 6.513 6.513 0 011.722-.283 2.273 2.273 0 011.89.717 3.251 3.251 0 01.601 1.98h.1a21.254 21.254 0 013.148-2.172 6.305 6.305 0 013.016-.707 3.3 3.3 0 012.485.924 3.335 3.335 0 01.895 2.422 10.666 10.666 0 01-.091 1.066 10.925 10.925 0 01-.291 1.515l-1.4 5.344q-.15.533-.291 1.224a5.738 5.738 0 00-.142 1.074 1.61 1.61 0 00.416 1.29 2.158 2.158 0 001.365.341 5.445 5.445 0 00.907-.108 5.77 5.77 0 00.907-.224z"
                    class="colorbbf2ff svgShape" />
                <path fill="#fff" class="colorfff svgShape"
                    d="M101 42H52.498l-12.6 44.54-7.311-25.829h-3.878L37 90h6.814l12.82-45.316H101V42z" />
                <circle cx="197" cy="66" r="67" fill="url(#a)" />
                <path d="M261.734 71.734L232 42l-46 1-13 46-5 1 40.046 40.046a65.01 65.01 0 0053.688-58.312z"
                    opacity=".1" class="color000 svgShape" />
                <path fill="#fff"
                    d="M202.101 85.371h-.201q-.633.52-1.51 1.312a13.814 13.814 0 01-2.057 1.514 14.633 14.633 0 01-2.445 1.254 7.625 7.625 0 01-2.877.533 7.886 7.886 0 01-6.545-2.998q-2.374-3-2.373-8.19a18.851 18.851 0 011.324-6.949 20.65 20.65 0 013.656-6.055 17.454 17.454 0 015.268-4.138 13.549 13.549 0 016.276-1.571 13.714 13.714 0 013.9.548 11.361 11.361 0 012.922 1.239l5.287-1.355.346.432-4.388 18.602q-.231.893-.475 2.177a11.26 11.26 0 00-.245 1.889 2.812 2.812 0 00.691 2.22 3.683 3.683 0 002.337.577 9.94 9.94 0 001.559-.173 9.291 9.291 0 001.558-.374l-.433 1.844q-2.598 1.037-3.868 1.497a9.1 9.1 0 01-3.088.461 4.45 4.45 0 01-3.29-1.21 4.6 4.6 0 01-1.329-3.086zm4.152-18.225a7.998 7.998 0 00-.202-1.816 3.839 3.839 0 00-.835-1.616 3.998 3.998 0 00-1.586-1.154 6.467 6.467 0 00-2.536-.432 7.082 7.082 0 00-4.093 1.384 14.078 14.078 0 00-3.573 3.72 19.376 19.376 0 00-2.45 5.307 22.283 22.283 0 00-.75 9.43 7.977 7.977 0 00.776 2.48 3.983 3.983 0 001.582 1.703 5.117 5.117 0 002.616.605 7.395 7.395 0 003.378-.908 16.323 16.323 0 003.983-3.187z"
                    class="colorfff svgShape" />
                <path fill="#fff"
                    d="M234.028 65.367l-.25 1.065q-1.502.598-2.337.873a5.368 5.368 0 01-1.685.274 2.664 2.664 0 01-2.003-.69 2.36 2.36 0 01-.667-1.707 5.443 5.443 0 01.066-.808q.066-.441.218-1.04l1.642-6.21q.185-.716.293-1.3a5.377 5.377 0 00.108-.932 2.715 2.715 0 00-.529-1.765 1.904 1.904 0 00-1.568-.649 4.909 4.909 0 00-2.26.667 8.385 8.385 0 00-2.36 1.932l-2.84 12.22h-3.108l2.494-10.79.242-1.157a6.287 6.287 0 00.158-1.224 1.798 1.798 0 00-.317-1.249 1.838 1.838 0 00-1.27-.316 4.542 4.542 0 00-.936.125q-.569.124-.886.208l.25-1.065a17.313 17.313 0 012.308-.865 6.513 6.513 0 011.722-.283 2.273 2.273 0 011.89.717 3.251 3.251 0 01.601 1.98h.1a21.254 21.254 0 013.148-2.172 6.305 6.305 0 013.016-.707 3.3 3.3 0 012.485.924 3.335 3.335 0 01.895 2.422 10.666 10.666 0 01-.091 1.066 10.925 10.925 0 01-.291 1.515l-1.4 5.344q-.15.533-.291 1.224a5.738 5.738 0 00-.142 1.074 1.61 1.61 0 00.416 1.29 2.158 2.158 0 001.365.341 5.445 5.445 0 00.907-.108 5.77 5.77 0 00.907-.224z"
                    class="colorbbf2ff svgShape" />
                <path fill="#fff" class="colorfff svgShape"
                    d="M232 42H183.498l-12.6 44.54-7.311-25.829h-3.878L168 90h6.814l12.82-45.316H232V42z" />
            </g>
        </g>
    </svg></svg>