<svg xmlns="http://www.w3.org/2000/svg" xmlns:xlink="http://www.w3.org/1999/xlink" width="263" height="132"
    viewBox="0 0 263 132">
    <defs>
        <linearGradient id="9b407355-2a7d-4076-9661-55fc1fa851fb" x1="244.5006" y1="113.5006" x2="151.6109" y2="20.6109"
            gradientUnits="userSpaceOnUse">
            <stop offset="0" stop-color="#06af86" />
            <stop offset="1" stop-color="#08b995" />
        </linearGradient>
        <linearGradient id="d2008a72-40bb-4819-b47d-533f9e544006" x1="144.6673" y1="144.6673" x2="-17.1764"
            y2="-17.1764" gradientUnits="userSpaceOnUse">
            <stop offset="0" stop-color="#aaa172" />
            <stop offset="1" stop-color="#c8bf8b" />
        </linearGradient>
        <linearGradient id="a" x1="111.667" x2="20.246" y1="111.667" y2="20.246" gradientUnits="userSpaceOnUse">
            <stop offset="0" stop-color="#b31217" class="stopColor07758e svgShape" />
            <stop offset="1" stop-color="#e52d27" class="stopColor087f95 svgShape" />
        </linearGradient>
    </defs>
    <title>Biologija</title>
    <g id="1ee1cd99-1594-49f8-b0ec-3247db568d03" data-name="Layer 2">
        <g id="ad46192e-7ef5-4902-b68e-ad25c33fd235" data-name="Layer 1">
            <rect width="263" height="132" fill="none" />
            <circle cx="66" cy="66" r="67" fill="url(#9b407355-2a7d-4076-9661-55fc1fa851fb)" />
            <polygon points="81.908 39.458 93.376 50.927 84.277 60.304 67.314 43.341 81.908 39.458" opacity="0.05" />
            <circle cx="66" cy="66" r="68" fill="url(#a)" />
            <path d="M36.0012,69.6667l55.937,55.937A65.1527,65.1527,0,0,0,128.281,84.613L97.0847,53.4167Z"
                opacity="0.1" />
            <path
                d="M78.6736,129.7556a64.48,64.48,0,0,0,13.2646-4.1519L51.6765,85.3418,48.668,90.375l6.5073,6.5073L51.668,102.75Z"
                opacity="0.05" />
            <path
                d="M87.5975,51.2551H85.9159a18.7829,18.7829,0,0,0-34.4941-6.96,14.5782,14.5782,0,1,0-3.34,28.7674H87.5975a10.9038,10.9038,0,0,0,0-21.8077Z"
                fill="#75daf9" stroke="#fff" stroke-miterlimit="10" stroke-width="4" />
            <path d="M48.2892,43.8961a14.5588,14.5588,0,0,1,11.5318,5.6553" fill="none" stroke="#fff"
                stroke-miterlimit="10" stroke-width="4" />
            <path
                d="M68.9887,88.9387A4.1667,4.1667,0,0,1,61.49,85.303c1.004-2.0706,4.2946-3.8912,7.5122-5.943C69.4376,82.9513,69.9927,86.8681,68.9887,88.9387Z"
                fill="#fff" />
            <path
                d="M55.2387,88.9387A4.1667,4.1667,0,0,1,47.74,85.303c1.004-2.0706,4.2946-3.8912,7.5122-5.943C55.6876,82.9513,56.2427,86.8681,55.2387,88.9387Z"
                fill="#fff" />
            <path
                d="M82.7387,88.9387A4.1667,4.1667,0,1,1,75.24,85.303c1.004-2.0706,4.2946-3.8912,7.5122-5.943C83.1876,82.9513,83.7427,86.8681,82.7387,88.9387Z"
                fill="#fff" />
            <path
                d="M58.1554,101.4387A4.1667,4.1667,0,0,1,50.657,97.803c1.004-2.0706,4.2946-3.8912,7.5122-5.943C58.6042,95.4513,59.1593,99.3681,58.1554,101.4387Z"
                fill="#fff" />
            <path
                d="M71.9054,101.4387A4.1667,4.1667,0,0,1,64.407,97.803c1.004-2.0706,4.2946-3.8912,7.5122-5.943C72.3542,95.4513,72.9093,99.3681,71.9054,101.4387Z"
                fill="#fff" />
            <circle cx="66" cy="66" r="65" fill="url(#a)" />
            <path
                d="M84.856,33.4961,68.4265,49.9253l-16.25-16.25L49.1,36.752l16.25,16.25L60.981,57.3711l-4.125-4.125L55.3015,54.8l-3.125-3.125L49.1,54.752l6.95,6.95-8.498.8486-6.875-6.875L37.6,58.752l13.2,13.2-14.45,1.8,8.125,8.125L38.1,88.252,79.447,129.5991a65.0609,65.0609,0,0,0,50.3506-51.1614Z"
                opacity="0.2" />
            <path
                d="M47.2273,58.0383a51.1188,51.1188,0,0,1-6.0156-2.5557,2.4751,2.4751,0,0,0-3.4121.8618,2.5217,2.5217,0,0,0,.8538,3.4424,52.6068,52.6068,0,0,0,7.3833,3.1523A43.6308,43.6308,0,0,0,45.6485,69.3h-7.16a2.5093,2.5093,0,0,0,0,5.0183h7.4724a42.5535,42.5535,0,0,0,1.179,6.209,54.5525,54.5525,0,0,0-8.2234,3.4377,3.273,3.273,0,0,0-.9531,4.0066c.4661.7847,1.3892.6553,2.2346.6553a2.4619,2.4619,0,0,0,1.2769-.3579,54.9259,54.9259,0,0,1,7.3059-3.0027c2.7,6.2649,7.439,11.7637,15.3115,14.23,0-25.7.2627-38.6831.2627-38.6831s-10.11-.3975-17.0693-2.9146C47.2659,57.9436,47.2468,57.9927,47.2273,58.0383Zm46.2844,16.28a2.5093,2.5093,0,0,0,0-5.0183h-7.16a43.6308,43.6308,0,0,0-.3882-6.3611,52.6068,52.6068,0,0,0,7.3833-3.1523A2.5219,2.5219,0,0,0,94.2,56.3445a2.4752,2.4752,0,0,0-3.4121-.8618,51.1189,51.1189,0,0,1-6.0156,2.5557c-.02-.0457-.0388-.0947-.0583-.1389-6.959,2.5171-17.0691,2.9146-17.0691,2.9146s.2627,12.9829.2627,38.6831C75.78,97.03,80.52,91.5315,83.2195,85.2666a54.9259,54.9259,0,0,1,7.3059,3.0027,2.4613,2.4613,0,0,0,1.2769.3579c.8452,0,1.7683.1294,2.2346-.6553a3.2735,3.2735,0,0,0-.9529-4.0066A54.5927,54.5927,0,0,0,84.86,80.5276a42.5535,42.5535,0,0,0,1.179-6.209Z"
                fill="#fff" />
            <path
                d="M77.136,47.4413a55.92,55.92,0,0,1,5.0776-7.0819c.0892.0063.1781.0137.2689.0137a3.9352,3.9352,0,1,0-3.9-3.9349,4.0076,4.0076,0,0,0,.0274.4514,59.1976,59.1976,0,0,0-5.7151,7.9331,19.0578,19.0578,0,0,0-6.5985-1.3478V43.46c-.0982,0-.198.0058-.2965.0073-.0986-.0015-.1985-.0073-.2966-.0073v.015a19.0573,19.0573,0,0,0-6.5985,1.3478A59.1889,59.1889,0,0,0,53.39,36.89a4.0075,4.0075,0,0,0,.0275-.4514,3.9,3.9,0,1,0-3.9,3.9349c.0909,0,.18-.0074.2688-.0137a55.88,55.88,0,0,1,5.0776,7.0819,21.9709,21.9709,0,0,0-5.74,7.4113S53.88,57.5879,66,57.5035c12.12.0844,16.8761-2.6509,16.8761-2.6509A21.9678,21.9678,0,0,0,77.136,47.4413Z"
                fill="#e1fcff" />
            <path
                d="M215.856,33.4961,199.4265,49.9253l-16.25-16.25L180.1,36.752l16.25,16.25-4.3689,4.3691-4.125-4.125L186.3015,54.8l-3.125-3.125L180.1,54.752l6.95,6.95-8.498.8486-6.875-6.875L168.6,58.752l13.2,13.2-14.45,1.8,8.125,8.125L169.1,88.252l41.3472,41.3472a65.0609,65.0609,0,0,0,50.3506-51.1614Z"
                opacity="0.1" />
            <path
                d="M178.2273,58.0383a51.1188,51.1188,0,0,1-6.0156-2.5557,2.4751,2.4751,0,0,0-3.4121.8618,2.5217,2.5217,0,0,0,.8538,3.4424,52.6068,52.6068,0,0,0,7.3833,3.1523,43.6308,43.6308,0,0,0-.3882,6.3611h-7.16a2.5093,2.5093,0,0,0,0,5.0183h7.4724a42.5534,42.5534,0,0,0,1.179,6.209,54.5525,54.5525,0,0,0-8.2234,3.4377,3.273,3.273,0,0,0-.9531,4.0066c.4661.7847,1.3892.6553,2.2346.6553a2.4619,2.4619,0,0,0,1.2769-.3579,54.9259,54.9259,0,0,1,7.3059-3.0027c2.7,6.2649,7.439,11.7637,15.3115,14.23,0-25.7.2627-38.6831.2627-38.6831s-10.11-.3975-17.0693-2.9146C178.2659,57.9436,178.2468,57.9927,178.2273,58.0383Zm46.2844,16.28a2.5093,2.5093,0,0,0,0-5.0183h-7.16a43.6308,43.6308,0,0,0-.3882-6.3611,52.6068,52.6068,0,0,0,7.3833-3.1523,2.5219,2.5219,0,0,0,.8538-3.4424,2.4752,2.4752,0,0,0-3.4121-.8618,51.1189,51.1189,0,0,1-6.0156,2.5557c-.02-.0457-.0388-.0947-.0583-.1389-6.959,2.5171-17.0691,2.9146-17.0691,2.9146s.2627,12.9829.2627,38.6831c7.8723-2.4668,12.6116-7.9656,15.3115-14.23a54.9259,54.9259,0,0,1,7.3059,3.0027,2.4613,2.4613,0,0,0,1.2769.3579c.8452,0,1.7683.1294,2.2346-.6553a3.2735,3.2735,0,0,0-.9529-4.0066,54.5927,54.5927,0,0,0-8.2236-3.4377,42.5534,42.5534,0,0,0,1.179-6.209Z"
                fill="#fff" />
            <path
                d="M208.136,47.4413a55.92,55.92,0,0,1,5.0776-7.0819c.0892.0063.1781.0137.2689.0137a3.9352,3.9352,0,1,0-3.9-3.9349,4.0076,4.0076,0,0,0,.0274.4514,59.1976,59.1976,0,0,0-5.7151,7.9331,19.0577,19.0577,0,0,0-6.5985-1.3478V43.46c-.0982,0-.198.0058-.2965.0073-.0986-.0015-.1985-.0073-.2966-.0073v.015a19.0573,19.0573,0,0,0-6.5985,1.3478A59.1889,59.1889,0,0,0,184.39,36.89a4.0075,4.0075,0,0,0,.0275-.4514,3.9,3.9,0,1,0-3.9,3.9349c.0909,0,.18-.0074.2688-.0137a55.88,55.88,0,0,1,5.0776,7.0819,21.9709,21.9709,0,0,0-5.74,7.4113S184.88,57.5879,197,57.5035c12.12.0844,16.8761-2.6509,16.8761-2.6509A21.9678,21.9678,0,0,0,208.136,47.4413Z"
                fill="#e1fcff" />
        </g>
    </g>
</svg>