<svg xmlns="http://www.w3.org/2000/svg" xmlns:xlink="http://www.w3.org/1999/xlink" width="263" height="132"
    viewBox="0 0 263 132">
    <defs>
        <linearGradient id="dba728dc-9800-469f-8bc6-7716668ca573" x1="247.1264" y1="116.1264" x2="150.1413" y2="19.1413"
            gradientUnits="userSpaceOnUse">
            <stop offset="0" stop-color="#417387" />
            <stop offset="1" stop-color="#537a8c" />
        </linearGradient>
        <clipPath id="901354ad-2247-4c1d-90a9-22764b637070">
            <path
                d="M102.2355,63.6032c0-16.6255-15.5847-30.1032-34.8092-30.1032S32.6175,46.9777,32.6175,63.6032c0,13.4851,10.2537,24.898,24.3851,28.729a14.0087,14.0087,0,0,1-2.6294,10.1316c-4.4976,6.2011,10.6153-.6981,16.3637-8.8959C88.4081,92.1252,102.2355,79.2628,102.2355,63.6032Z"
                fill="none" clip-rule="evenodd" />
        </clipPath>
        <linearGradient id="a" x1="111.667" x2="20.246" y1="111.667" y2="20.246" gradientUnits="userSpaceOnUse">
            <stop offset="0" stop-color="#b31217" class="stopColor07758e svgShape" />
            <stop offset="1" stop-color="#e52d27" class="stopColor087f95 svgShape" />
        </linearGradient>
    </defs>
    <title>en_1</title>
    <g id="30249e3e-aee5-4816-9251-1e9ec3b842c5" data-name="Layer 2">
        <g id="5f08f5e4-595a-4488-9166-b39ddb5457dc" data-name="Layer 1">
            <circle cx="66" cy="66" r="68" fill="url(#a)" />
            <path
                d="M208.0442,130.0464a65.037,65.037,0,0,0,52.81-51.9229L225.1873,42.457l-1.8838,1.884a36.1611,36.1611,0,0,0-25.19-9.7651c-18.6443,0-33.759,13.0713-33.759,29.1951,0,10.1785,6.0244,19.1379,15.1558,24.363l-1.2432,1.2429L187.18,98.29c1.0835,2.7253-3.2117,7.6812-3.2117,7.6812Z"
                fill="#044c68" fill-rule="evenodd" opacity="0.4" />
            <path
                d="M198.1137,37.3333c17.0645,0,30.9475,11.7028,30.9475,26.0875a23.8656,23.8656,0,0,1-7.8549,17.3437,33.1253,33.1253,0,0,1-20.0806,8.6174l-2.3395.1909-1.3477,1.9219a24.7648,24.7648,0,0,1-5.04,5.0287,20.301,20.301,0,0,0-.0851-4.028l-.4006-3.3494-3.2557-.8826c-12.8542-3.4847-21.4907-13.4684-21.4907-24.8428,0-14.3848,13.8828-26.0875,30.947-26.0875m0-5c-19.8528,0-35.947,13.9185-35.947,31.0875,0,13.9261,10.589,25.7123,25.1825,29.6686a14.4675,14.4675,0,0,1-2.7153,10.4629c-1.2511,1.7249-1.0327,2.4683.07,2.4683,2.9913,0,12.4913-5.4695,16.8287-11.6552,18.2491-1.49,32.5287-14.7728,32.5287-30.9446,0-17.1691-16.0942-31.0875-35.9475-31.0875Z"
                fill="#fff" />
            <path
                d="M185.3569,75.7377A5.2349,5.2349,0,0,1,181.952,74.7a3.2489,3.2489,0,0,1-1.2767-2.6334,8.2647,8.2647,0,0,1,.0885-1.2412q.0884-.5851.2836-1.5076l2.1984-9.4343h-3.2446l.4248-1.8267h3.3109l1.2829-5.3732h5.7438l-1.2467,5.3732H194.33l-.4256,1.8267h-4.7877l-2.1618,9.4343q-.1246.4968-.24,1.2061a7.5062,7.5062,0,0,0-.1155.9221,1.5924,1.5924,0,0,0,.5586,1.4011,3.0114,3.0114,0,0,0,1.7109.39,7.517,7.517,0,0,0,1.5154-.213,12.2147,12.2147,0,0,0,1.3563-.3546l-.39,1.5962a19.0609,19.0609,0,0,1-3.13,1.0817A11.9746,11.9746,0,0,1,185.3569,75.7377Z"
                fill="#fff" />
            <path
                d="M216.9153,72.5988l-.39,1.5607q-1.7547.6916-2.8,1.0551a7.3919,7.3919,0,0,1-2.4278.3635,4.7584,4.7584,0,0,1-3.2879-1.0551,3.37,3.37,0,0,1-1.1784-2.6158q0-.4962.0445-1.1a10.2215,10.2215,0,0,1,.3085-1.6492l1.2685-4.7171q.1937-.7624.2914-1.3742a6.6112,6.6112,0,0,0,.0975-1.0021,1.99,1.99,0,0,0-.4072-1.33,1.7288,1.7288,0,0,0-1.3809-.4786,4.8877,4.8877,0,0,0-1.7171.47,9.0678,9.0678,0,0,0-2.4953,1.7471L199.9,75.2767h-5.8608l5.218-22.5754q.0708-.3013.1065-.5676a3.5031,3.5031,0,0,0,.0355-.4431,2.0442,2.0442,0,0,0-.213-1.0111,1.5813,1.5813,0,0,0-.6393-.6027,3.0708,3.0708,0,0,0-.9767-.3195q-.5506-.0884-1.279-.16l.3191-1.3122,9.3387-.4611.1946.2836L203.3065,60.38h.124a14.3275,14.3275,0,0,1,3.4252-2.2788,8.9352,8.9352,0,0,1,3.8149-.8246,4.2228,4.2228,0,0,1,3.0784,1.0817,3.5313,3.5313,0,0,1,1.1094,2.6248q0,.4078-.0624,1.1437a8.6221,8.6221,0,0,1-.2926,1.5693L213.155,68.68a14.4083,14.4083,0,0,0-.3195,1.4187,7.5106,7.5106,0,0,0-.142,1.2057,1.8128,1.8128,0,0,0,.4521,1.4187,2.4633,2.4633,0,0,0,1.588.39,4.5891,4.5891,0,0,0,1.2061-.1861A6.653,6.653,0,0,0,216.9153,72.5988Z"
                fill="#fff" />
            <rect width="263" height="132" fill="none" />
            <circle cx="66" cy="66" r="68" fill="url(#a)" />
            <path
                d="M77.1067,130.0464a65.037,65.037,0,0,0,52.81-51.9229L94.25,42.457l-1.8838,1.884a36.1611,36.1611,0,0,0-25.19-9.7651c-18.6443,0-33.759,13.0713-33.759,29.1951,0,10.1785,6.0244,19.1379,15.1558,24.363L47.33,89.377,56.2424,98.29c1.0835,2.7253-3.2117,7.6812-3.2117,7.6812Z"
                fill="#000" fill-rule="evenodd" opacity="0.2" style="isolation:isolate" />
            <g clip-path="url(#901354ad-2247-4c1d-90a9-22764b637070)">
                <g id="289e505b-675a-4ac4-87b3-01d31d87561a" data-name="g3047">
                    <path id="cb61a895-6736-42eb-a751-d67f6ac1134e" data-name="path3025"
                        d="M12.1747,38.6258V92.93H120.7827V38.6258Z" fill="#00247d" />
                    <path id="b6456327-095d-4873-a38e-33b704b0008c" data-name="path3016"
                        d="M12.1747,38.6258v6.0809L54.3169,65.7778,12.1747,86.8489V92.93H24.3479L66.4787,71.887,108.61,92.93h12.1731V86.8489L78.6405,65.7778l42.1421-21.0711V38.6258H108.61L66.4787,59.6686,24.3479,38.6258H12.1747Z"
                        fill="#f1f2f2" />
                    <path id="fcf9c2c3-9d20-40b2-8c9c-f3e43162d323" data-name="path3043"
                        d="M12.1713,42.7215,62.3888,67.7937,12.1713,92.9594h8.1079l50.1756-25.228,50.3314,25.228V88.8743L70.4547,63.74l50.3314-25.1436h-8.3742L62.3888,63.6845,12.1713,38.5962Z"
                        fill="#cf142b" />
                    <path id="a1ab16ca-7897-42b3-b8c5-3ca98d310a2f" data-name="path3012"
                        d="M57.428,36.8333V56.7272H12.1747V74.8285H57.428V96.24H75.5293V74.8285h45.2533V56.7272H75.5293V36.8333Z"
                        fill="#f1f2f2" />
                    <path id="1d455c8e-9a83-437a-9621-30c85142d478" data-name="path3014"
                        d="M61.0483,37.01V60.3474H12.1747V71.2082H61.0483v25.637H71.9091V71.2082h48.8736V60.3474H71.9091V37.01Z"
                        fill="#cf142b" />
                </g>
            </g>
            <polygon points="60.96 89.188 67.147 95.375 62.147 98.438 57.397 98.813 60.96 89.188" fill="#000"
                opacity="0.2" />
            <g opacity="0.15">
                <path
                    d="M36.7293,64.4834c0-14.3848,13.8828-26.0876,30.947-26.0876,12.5869,0,23.4351,6.3706,28.2656,15.4849-4.5476-9.645-15.7233-16.4849-28.7656-16.4849-17.0642,0-30.947,11.7029-30.947,26.0876A22.6714,22.6714,0,0,0,38.9152,74.11,22.5688,22.5688,0,0,1,36.7293,64.4834Z"
                    fill="#044c68" />
            </g>
            <path
                d="M67.1762,37.3333c17.0645,0,30.9475,11.7028,30.9475,26.0875A23.866,23.866,0,0,1,90.269,80.7646,33.1253,33.1253,0,0,1,70.1884,89.382l-2.34.1909-1.3474,1.9218a24.76,24.76,0,0,1-5.04,5.0287,20.3052,20.3052,0,0,0-.0852-4.0283l-.4009-3.3489L57.72,88.2636C44.8657,84.7788,36.2292,74.7952,36.2292,63.4209c0-14.3848,13.8828-26.0875,30.947-26.0875m0-5c-19.8528,0-35.947,13.9185-35.947,31.0875,0,13.9261,10.5891,25.7123,25.1824,29.6686a14.4658,14.4658,0,0,1-2.7153,10.4629c-1.251,1.7249-1.0327,2.4683.07,2.4683,2.9915,0,12.4912-5.4695,16.8289-11.6552,18.249-1.49,32.5286-14.7728,32.5286-30.9446,0-17.1691-16.0942-31.0875-35.9475-31.0875Z"
                fill="#fff" />
        </g>
    </g>
</svg>