<svg xmlns="http://www.w3.org/2000/svg" xmlns:xlink="http://www.w3.org/1999/xlink" width="263" height="132"
    viewBox="0 0 263 132">
    <defs>
        <linearGradient id="b9dcdc36-8df5-42e5-bce3-fb796d11c813" x1="242.9619" y1="111.9619" x2="142.9596" y2="11.9596"
            gradientUnits="userSpaceOnUse">
            <stop offset="0" stop-color="#c9aa4c" />
            <stop offset="1" stop-color="#ddbf6b" />
        </linearGradient>
        <linearGradient id="a" x1="111.667" x2="20.246" y1="111.667" y2="20.246" gradientUnits="userSpaceOnUse">
            <stop offset="0" stop-color="#b31217" class="stopColor07758e svgShape" />
            <stop offset="1" stop-color="#e52d27" class="stopColor087f95 svgShape" />
        </linearGradient>
        <clipPath id="fdf5e364-4892-43fe-9b16-8489dfd7f5f4">
            <circle cx="197" cy="66" r="65" fill="url(#b9dcdc36-8df5-42e5-bce3-fb796d11c813)" />
        </clipPath>
        <linearGradient id="e9358b3a-2a4e-4228-a564-d0186a1c4fa4" x1="196.003" y1="69.2854" x2="196.003" y2="195.5483"
            gradientUnits="userSpaceOnUse">
            <stop offset="0" stop-color="#86693c" />
            <stop offset="1" stop-color="#cbaf4d" />
        </linearGradient>
        <clipPath id="a4a916af-b22c-4ba3-900c-16910af0916b">
            <circle cx="66" cy="66" r="65" fill="#9b8149" />
        </clipPath>
        <linearGradient id="b22664d5-1d5c-4f53-95f9-5027683f677a" x1="65.003" y1="105.8923" x2="65.003" y2="243.6239"
            gradientUnits="userSpaceOnUse">
            <stop offset="0" stop-color="#7b6136" />
            <stop offset="1" stop-color="#cbaf4d" />
        </linearGradient>
    </defs>
    <title>Asset 11</title>
    <g id="b8876d11-1dac-41ff-8570-5b5bbcdc58cf" data-name="Layer 2">
        <g id="bc5bf81e-faf3-49a6-be8b-28c7088a1b8b" data-name="Layer 1">
            <rect width="263" height="132" fill="none" />
            <circle cx="197" cy="66" r="69" fill="url(#b9dcdc36-8df5-42e5-bce3-fb796d11c813)" />
            <g clip-path="url(#fdf5e364-4892-43fe-9b16-8489dfd7f5f4)">
                <path
                    d="M262.61,65.2856l-36.1091-36.109-44.0793,5.1182-20.0457,34.33,55.8423,55.8422C243.9131,118.046,261.4605,96.8823,262.61,65.2856Z"
                    fill="#332b27" opacity="0.2" />
                <path
                    d="M258.1963,89.71l-45.574-45.5737-18.8711,2.1128-7.5,11.75v10.75l-8.75,12.25,45.1817,45.1817C239.887,121.2411,251.503,106.84,258.1963,89.71Z"
                    fill="#332b27" opacity="0.2" />
                <path
                    d="M179.7077,63.8008a22.1027,22.1027,0,0,1,34.5769-21.4436l12.2166-13.1806a40.06,40.06,0,0,0-64.0286,39.86Z"
                    fill="#fff" />
                <path
                    d="M211.4006,59.5625l7.7547-1.8213s-1.038-8.0472-5.0185-12.09c-4.8973,9.577-10.8675,12.9137-12.3367,13.618-.0144-.0718-.0144-.1375-.0319-.2053a5.88,5.88,0,0,0-6.7546-4.2567,5.8036,5.8036,0,0,0-4.7155,7.2689,5.9088,5.9088,0,0,0,9.2237,3.22c.6489-.0513,1.0585-.1067,1.0585-.1067,7.7854,7.4333,7.9847,17.4927,20.3891,17.1252-3.9733-4.3-1.0185-15.6919-1.7782-16.0163C209.0506,61.9568,211.4006,59.5625,211.4006,59.5625Z"
                    fill="#fff" />
                <path
                    d="M198.0958,68.4249a8.1689,8.1689,0,0,1-9.9867-5.7761A8.017,8.017,0,0,1,194.67,52.5871a8.2082,8.2082,0,0,1,8.1653,3.4416,30.9508,30.9508,0,0,0,9.2854-11.39l.1611-.3182a19.263,19.263,0,0,0-28.0348,24.7083l.5668.6427L177.6,80.9115s7.4025,6.6921,16.5461-1.5359c1.8584-1.6755,3.6469-8.47,4.1315-11.0082C198.218,68.3859,198.1594,68.4085,198.0958,68.4249Z"
                    fill="#fff" />
                <rect x="132.8115" y="91.3572" width="126.383" height="39.6428" fill="url(#a)" />
            </g>
            <path id="a78842da-dc30-4f98-b8fc-a0e52bf82dd6" data-name="path27012"
                d="M184.7925,102.5239h-4.6482v2.3541h2.3415v11.6931h2.33l-.0237-14.0472m35.0635,13.7672H199.1625a8.4713,8.4713,0,0,1-8.6666-8.3644,8.8416,8.8416,0,0,1,8.6666-9.021,8.7152,8.7152,0,0,1,8.69,9.021h-2.33c-.0474-3.4363-2.3794-6.689-6.36-6.6669a6.4006,6.4006,0,0,0-6.3473,6.6669,6.2991,6.2991,0,0,0,6.3473,6.0087H219.856v2.3557"
                fill="#fff" />
            <path id="bcfa0daf-817d-4dd2-8af6-66b35e576ef8" data-name="path27010"
                d="M188.1655,98.8819H182.51v2.3558h3.3033l.0238,15.3334h2.3288V98.8819m31.69,13.7166H199.1388a5.0131,5.0131,0,0,1-.0269-10.0256,5.2274,5.2274,0,0,1,5.05,5.3538h-2.33a2.6933,2.6933,0,1,0-5.3521,0,2.5958,2.5958,0,0,0,2.6832,2.3414H219.856v2.33"
                fill="#fff" />
            <circle cx="66" cy="66" r="69" fill="url(#a)" />
            <g clip-path="url(#a4a916af-b22c-4ba3-900c-16910af0916b)">
                <path
                    d="M131.61,65.2856,95.5012,29.1766,51.4219,34.2948l-20.0457,34.33,55.8423,55.8422C112.9131,118.046,130.4605,96.8823,131.61,65.2856Z"
                    fill="#332b27" opacity="0.2" />
                <path
                    d="M127.1963,89.71,81.6223,44.1366,62.7512,46.2494l-7.5,11.75v10.75l-8.75,12.25,45.1817,45.1817C108.887,121.2411,120.503,106.84,127.1963,89.71Z"
                    fill="#332b27" opacity="0.2" />
                <path
                    d="M48.7077,63.8008A22.1027,22.1027,0,0,1,83.2846,42.3572L95.5012,29.1766a40.06,40.06,0,0,0-64.0286,39.86Z"
                    fill="#fff" />
                <path
                    d="M80.4006,59.5625l7.7547-1.8213s-1.038-8.0472-5.0185-12.09C78.24,55.2279,72.2693,58.5646,70.8,59.2689c-.0144-.0718-.0144-.1375-.0319-.2053a5.88,5.88,0,0,0-6.7546-4.2567,5.8036,5.8036,0,0,0-4.7155,7.2689,5.9088,5.9088,0,0,0,9.2237,3.22c.6489-.0513,1.0585-.1067,1.0585-.1067,7.7854,7.4333,7.9847,17.4927,20.3891,17.1252-3.9733-4.3-1.0185-15.6919-1.7782-16.0163C78.0506,61.9568,80.4006,59.5625,80.4006,59.5625Z"
                    fill="#fff" />
                <path
                    d="M67.0958,68.4249a8.1689,8.1689,0,0,1-9.9867-5.7761A8.017,8.017,0,0,1,63.67,52.5871a8.2082,8.2082,0,0,1,8.1653,3.4416,30.9508,30.9508,0,0,0,9.2854-11.39l.1611-.3182A19.263,19.263,0,0,0,53.2467,69.0286l.5668.6427L46.6,80.9115s7.4025,6.6921,16.5461-1.5359c1.8584-1.6755,3.6469-8.47,4.1315-11.0082C67.218,68.3859,67.1594,68.4085,67.0958,68.4249Z"
                    fill="#fff" />
                <!-- <rect x="1.8115" y="91.3572" width="126.383" height="39.6428" fill="url(#a)" /> -->
            </g>
            <path id="f106aa49-a19c-497a-a412-bb07353ee095" data-name="path27012"
                d="M53.7925,102.5239H49.1443v2.3541h2.3415v11.6931h2.33l-.0237-14.0472M88.856,116.2911H68.1625a8.4713,8.4713,0,0,1-8.6666-8.3644,8.8416,8.8416,0,0,1,8.6666-9.021,8.7152,8.7152,0,0,1,8.69,9.021h-2.33c-.0474-3.4363-2.3794-6.689-6.36-6.6669a6.4006,6.4006,0,0,0-6.3473,6.6669,6.2991,6.2991,0,0,0,6.3473,6.0087H88.856v2.3557"
                fill="#fff" />
            <path id="e0ff9ee5-4019-4f64-bd02-39a107e18c2d" data-name="path27010"
                d="M57.1655,98.8819H51.51v2.3558h3.3033l.0238,15.3334h2.3288V98.8819m31.69,13.7166H68.1388a5.0131,5.0131,0,0,1-.0269-10.0256,5.2274,5.2274,0,0,1,5.05,5.3538h-2.33a2.6933,2.6933,0,1,0-5.3521,0,2.5958,2.5958,0,0,0,2.6832,2.3414H88.856v2.33"
                fill="#fff" />
        </g>
    </g>
</svg>