<svg xmlns="http://www.w3.org/2000/svg" xmlns:xlink="http://www.w3.org/1999/xlink" width="263" height="132"
    viewBox="0 0 263 132">
    <defs>
        <linearGradient id="07e14ab3-50a7-408a-bf70-639e47234eef" x1="111.7843" y1="111.6667" x2="20.3634" y2="20.2458"
            gradientUnits="userSpaceOnUse">
            <stop offset="0" stop-color="#07758e" />
            <stop offset="1" stop-color="#087f95" />
        </linearGradient>
        <linearGradient id="a" x1="111.667" x2="20.246" y1="111.667" y2="20.246" gradientUnits="userSpaceOnUse">
            <stop offset="0" stop-color="#b31217" class="stopColor07758e svgShape" />
            <stop offset="1" stop-color="#e52d27" class="stopColor087f95 svgShape" />
        </linearGradient>
        <linearGradient id="bafd8e1d-6fb8-4b66-bf46-cae0618fb938" x1="242.0591" y1="111.0591" x2="151.0083" y2="20.0083"
            gradientUnits="userSpaceOnUse">
            <stop offset="0" stop-color="#099cbe" />
            <stop offset="1" stop-color="#0ba9c7" />
        </linearGradient>
    </defs>
    <title>Informatika</title>
    <g id="612397be-4c19-44ab-a07f-34b1b341ea04" data-name="Layer 2">
        <g id="503760ed-fa45-41de-937a-5ae1da6ff83a" data-name="Layer 1">
            <rect width="263" height="132" fill="none" />
            <circle cx="66.1176" cy="66" r="69" fill="url(#a)" />
            <path
                d="M85.7344,127.98A65.0232,65.0232,0,0,0,131.1177,66c0-1.41-.0605-2.8047-.1489-4.1919L98.4768,29.3164l-4.4529,4.3768-3.303,2.7524-6.5142-1.1008-5.7019,3.8767,4.8762,8.0509-1.5354-.3182-5.0908-5.0908-6.94,2.5973L67.6,44.0017l-.7434,1.566L50.4058,51.7242l9.2017,9.115L46.4058,88.6516Z"
                opacity="0.2" />
            <path d="M48.7187,54.5637l-5.9049,9.9387a19.2675,19.2675,0,0,0,33.129,19.6829l5.9049-9.9387Z" fill="#fff" />
            <path d="M79.5946,43.5505,68.39,62.4091,83.5348,71.407l1.406-2.3664A19.3235,19.3235,0,0,0,79.5946,43.5505Z"
                fill="#fff" />
            <path d="M76.7549,41.8634a19.3235,19.3235,0,0,0-24.9432,7.4942l-1.406,2.3664L65.5505,60.722Z" fill="#fff" />
            <path
                d="M81.3444,40.9086l-2.84-1.687,1.687-2.84a6.063,6.063,0,0,1,8.2989-2.1128,2.7523,2.7523,0,0,0,3.7723-.9607l3.3742-5.6792,2.84,1.687-3.3742,5.6792a6.0549,6.0549,0,0,1-8.2989,2.1133,2.7573,2.7573,0,0,0-3.7723.96Z"
                fill="white" />
            <circle cx="197" cy="66" r="65" fill="url(#a)" />
            <path
                d="M216.6167,127.98A65.0232,65.0232,0,0,0,262,66c0-1.41-.0605-2.8047-.1489-4.1919L229.3591,29.3164l-4.4529,4.3768-3.303,2.7524-6.5142-1.1008-5.7019,3.8767,4.8762,8.0509-1.5354-.3182-5.0908-5.0908-6.94,2.5973-2.2148-.459-.7434,1.566-16.4507,6.1565,9.2017,9.115L177.2881,88.6516Z"
                opacity="0.2" />
            <path d="M179.601,54.5637l-5.9049,9.9387a19.2675,19.2675,0,0,0,33.129,19.6829l5.9049-9.9387Z" fill="#fff" />
            <path
                d="M210.4769,43.5505,199.2725,62.4091l15.1447,8.9979,1.406-2.3664A19.3235,19.3235,0,0,0,210.4769,43.5505Z"
                fill="#fff" />
            <path d="M207.6373,41.8634a19.3235,19.3235,0,0,0-24.9432,7.4942l-1.406,2.3664,15.1447,8.9979Z"
                fill="#fff" />
            <path
                d="M212.2267,40.9086l-2.84-1.687,1.687-2.84a6.063,6.063,0,0,1,8.2989-2.1128,2.7523,2.7523,0,0,0,3.7723-.9607l3.3742-5.6792,2.84,1.687-3.3742,5.6792a6.0549,6.0549,0,0,1-8.2989,2.1133,2.7573,2.7573,0,0,0-3.7723.96Z"
                fill="#bbf2ff" />
        </g>
    </g>
</svg>