<svg xmlns="http://www.w3.org/2000/svg" xmlns:xlink="http://www.w3.org/1999/xlink" width="263" height="132"
    viewBox="0 0 263 132">
    <defs>
        <linearGradient id="50c6f3cd-fd98-4efb-9f27-cc82fc44cef2" x1="242.9619" y1="111.9619" x2="151.0381" y2="20.0381"
            gradientUnits="userSpaceOnUse">
            <stop offset="0" stop-color="#06af86" />
            <stop offset="1" stop-color="#08b995" />
        </linearGradient>
        <linearGradient id="a" x1="111.667" x2="20.246" y1="111.667" y2="20.246" gradientUnits="userSpaceOnUse">
            <stop offset="0" stop-color="#b31217" class="stopColor07758e svgShape" />
            <stop offset="1" stop-color="#e52d27" class="stopColor087f95 svgShape" />
        </linearGradient>
    </defs>
    <title>Kimija</title>
    <g id="c8bc150a-93a8-4ad1-91f0-979daf6f67b3" data-name="Layer 2">
        <g id="e9697b08-a873-47b6-a7a8-5df0dbf2d30f" data-name="Layer 1">
            <rect width="263" height="132" fill="none" />
            <circle cx="197" cy="66" r="69" fill="url(#a)" />
            <circle cx="66" cy="66" r="69" fill="url(#a)" />
            <path
                d="M130.5215,73.77,109.8489,53.8145,60.6887,35.875,38.2512,80.5625l-.8125,11.75,38.4517,37.94A65.0249,65.0249,0,0,0,130.5215,73.77Z"
                opacity="0.2" />
            <path
                d="M45.1773,87.3114H79.5751A3.3814,3.3814,0,0,0,82.3509,85.92a3.5129,3.5129,0,0,0,.1279-3.3038L75.54,69.4869a1.264,1.264,0,0,0-1.8039-.47c-6.0043,3.8614-13.99,8.1967-25.323,4.3108a1.2715,1.2715,0,0,0-1.5452.5956L42.2732,82.618a3.51,3.51,0,0,0,.1294,3.3036A3.3817,3.3817,0,0,0,45.1773,87.3114Z"
                fill="white" />
            <path
                d="M105.08,65.541l4.769-11.7266L69.2156,34.7339a10.6028,10.6028,0,0,0-2.7388-.8579,10.8148,10.8148,0,0,0-1.81-.1531,10.5439,10.5439,0,0,0-9.4736,5.9016l-19.98,40.2734A10.4556,10.4556,0,0,0,44.5794,95H80.1731A10.4556,10.4556,0,0,0,89.54,79.8979L78.511,57.6675a.7416.7416,0,0,1,.6318-1.0656.8055.8055,0,0,1,.2642.0475ZM74.8645,53.5537a5.7125,5.7125,0,0,0-.833,6.3364L85.06,82.12A5.4552,5.4552,0,0,1,80.1731,90H44.5794a5.455,5.455,0,0,1-4.8872-7.88l19.98-40.2734a5.5769,5.5769,0,0,1,5.0117-3.1221,5.6885,5.6885,0,0,1,.9561.0811,5.6165,5.6165,0,0,1,1.45.4536l36.3408,17.0649-1.1958,2.94-21.1914-7.34a5.717,5.717,0,0,0-6.1792,1.6289Z"
                fill="#fff" />
            <circle cx="58.1679" cy="64.3333" r="4.3333" fill="white" />
            <circle cx="65.6433" cy="73.8362" r="4.8147" fill="white" />
            <circle cx="64.6679" cy="55.5" r="3.3333" fill="white" />
            <path
                d="M261.5215,73.77,240.8489,53.8145l-49.16-17.9395L169.2512,80.5625l-.8125,11.75,38.4517,37.94A65.0249,65.0249,0,0,0,261.5215,73.77Z"
                opacity="0.2" />
            <path
                d="M236.08,65.541l4.769-11.7266L200.2156,34.7339a10.6028,10.6028,0,0,0-2.7388-.8579,10.8148,10.8148,0,0,0-1.81-.1531,10.5439,10.5439,0,0,0-9.4736,5.9016l-19.98,40.2734A10.4556,10.4556,0,0,0,175.5794,95h35.5938A10.4556,10.4556,0,0,0,220.54,79.8979l-11.0288-22.23a.7416.7416,0,0,1,.6318-1.0656.8055.8055,0,0,1,.2642.0475ZM205.8645,53.5537a5.7125,5.7125,0,0,0-.833,6.3364L216.06,82.12A5.4552,5.4552,0,0,1,211.1731,90H175.5794a5.455,5.455,0,0,1-4.8872-7.88l19.98-40.2734a5.5769,5.5769,0,0,1,5.0117-3.1221,5.6885,5.6885,0,0,1,.9561.0811,5.6165,5.6165,0,0,1,1.45.4536l36.3408,17.0649-1.1958,2.94-21.1914-7.34a5.717,5.717,0,0,0-6.1792,1.6289Z"
                fill="#fff" />
            <path
                d="M213.4788,82.6162,206.54,69.4868a1.2641,1.2641,0,0,0-1.804-.4695c-1.2344.7939-2.5583,1.6045-3.9722,2.3629a4.77,4.77,0,0,0-8.8657,3.1447,25.1728,25.1728,0,0,1-12.4851-1.1968,1.2713,1.2713,0,0,0-1.5452.5956l-4.5947,8.6942a3.5106,3.5106,0,0,0,.1294,3.3037,3.3822,3.3822,0,0,0,2.7747,1.39h34.3979a3.3813,3.3813,0,0,0,2.7756-1.3914A3.5124,3.5124,0,0,0,213.4788,82.6162Z"
                fill="#b7eef7" />
            <circle cx="189.168" cy="64.3333" r="4.3333" fill="#b7eef7" />
            <circle cx="195.668" cy="55.5" r="3.3333" fill="#b7eef7" />
        </g>
    </g>
</svg>