<svg xmlns="http://www.w3.org/2000/svg" xmlns:xlink="http://www.w3.org/1999/xlink" width="263" height="132"
    viewBox="0 0 263 132">
    <defs>
        <linearGradient id="e25a311f-e253-4d73-8b52-760664b16cdc" x1="243.1479" y1="112.1479" x2="143.3921" y2="12.3921"
            gradientUnits="userSpaceOnUse">
            <stop offset="0" stop-color="#007590" />
            <stop offset="1" stop-color="#377e98" />
        </linearGradient>
        <linearGradient id="a" x1="111.667" x2="20.246" y1="111.667" y2="20.246" gradientUnits="userSpaceOnUse">
            <stop offset="0" stop-color="#b31217" class="stopColor07758e svgShape" />
            <stop offset="1" stop-color="#e52d27" class="stopColor087f95 svgShape" />
        </linearGradient>
        <clipPath id="b77f947a-5624-430b-a880-0ec8e70f4ac6">
            <circle cx="197" cy="66" r="65" fill="url(#e25a311f-e253-4d73-8b52-760664b16cdc)" />
        </clipPath>
        <linearGradient id="ad62c59e-6231-4cbf-a640-f4b7d860db18" x1="196.003" y1="171.1652" x2="196.003" y2="89.9593"
            gradientUnits="userSpaceOnUse">
            <stop offset="0" stop-color="#007590" />
            <stop offset="1" stop-color="#085975" />
        </linearGradient>
        <clipPath id="f54e5665-b962-4366-9f1e-98aa15fef231">
            <circle cx="66" cy="66" r="65" fill="#226177" />
        </clipPath>
        <linearGradient id="bc47228a-6c6f-4cd7-8430-9425fcfd81c6" x1="65.003" y1="171.1652" x2="65.003" y2="89.9593"
            xlink:href="#ad62c59e-6231-4cbf-a640-f4b7d860db18" />
    </defs>
    <title>Asset 10</title>
    <g id="ac19afbb-5179-4700-abbe-e6fe874e225f" data-name="Layer 2">
        <g id="aa9d715a-f8cb-4dee-90e7-30a9a8d07b7a" data-name="Layer 1">
            <rect width="263" height="132" fill="none" />
            <circle cx="197" cy="66" r="65" fill="url(#e25a311f-e253-4d73-8b52-760664b16cdc)" />
            <g clip-path="url(#b77f947a-5624-430b-a880-0ec8e70f4ac6)">
                <path
                    d="M163.2488,78.0782l50.9206,50.9206a62.8349,62.8349,0,0,0,45.0251-41.9612c2.717-8.3224,3.1337-17.4894,3.1337-25.8572l-39.26-39.26Z"
                    fill="#044c68" opacity="0.5" />
                <rect x="132.8115" y="91.079" width="126.383" height="40.921"
                    fill="url(#ad62c59e-6231-4cbf-a640-f4b7d860db18)" />
            </g>
            <polygon
                points="223.068 36.37 223.068 21.92 196.94 29.79 170.811 21.92 170.811 36.37 163.249 36.37 163.249 78.078 230.751 78.078 230.751 36.37 223.068 36.37"
                fill="#fff" />
            <polygon points="199.043 71.656 199.043 32.851 219.532 26.679 219.532 65.486 199.043 71.656" fill="#8db9c9"
                opacity="0.6" />
            <polygon points="194.837 32.851 194.837 71.657 174.348 65.486 174.348 26.679 194.837 32.851" fill="#8db9c9"
                opacity="0.9" />
            <polygon points="166.787 39.907 170.811 39.907 170.811 68.115 192.148 74.541 166.787 74.541 166.787 39.907"
                fill="#8db9c9" />
            <polygon points="227.213 74.541 201.732 74.541 223.068 68.115 223.068 39.907 227.213 39.907 227.213 74.541"
                fill="#5e889a" />
            <path
                d="M223.0679,36.3774V68.1227L197.0012,76.054v-.0193l-26.1875-8.0312L180.8762,78.066l16.125.0122v.0072h33.75l.06-33.9646Z"
                fill="#044c68" opacity="0.2" />
            <path id="fd53e261-edca-4a93-8cee-44ea39fa91dd" data-name="path27012"
                d="M184.7925,102.5239h-4.6482v2.3541h2.3415v11.6931h2.33l-.0237-14.0472m35.0635,13.7672H199.1625a8.4713,8.4713,0,0,1-8.6666-8.3644,8.8416,8.8416,0,0,1,8.6666-9.021,8.7152,8.7152,0,0,1,8.69,9.021h-2.33c-.0474-3.4363-2.3794-6.689-6.36-6.6669a6.4006,6.4006,0,0,0-6.3473,6.6669,6.2991,6.2991,0,0,0,6.3473,6.0087H219.856v2.3557"
                fill="#fff" />
            <path id="a848f437-4357-4b7c-b4a2-c59cdff73b78" data-name="path27010"
                d="M188.1655,98.8819H182.51v2.3558h3.3033l.0238,15.3334h2.3288V98.8819m31.69,13.7166H199.1388a5.0131,5.0131,0,0,1-.0269-10.0256,5.2274,5.2274,0,0,1,5.05,5.3538h-2.33a2.6933,2.6933,0,1,0-5.3521,0,2.5958,2.5958,0,0,0,2.6832,2.3414H219.856v2.33"
                fill="#fff" />
            <circle cx="66" cy="66" r="69" fill="url(#a)" />

            <polygon
                points="92.068 36.37 92.068 21.92 65.94 29.79 39.811 21.92 39.811 36.37 32.249 36.37 32.249 78.078 99.751 78.078 99.751 36.37 92.068 36.37"
                fill="#fff" />
            <polygon points="68.043 71.656 68.043 32.851 88.532 26.679 88.532 65.486 68.043 71.656" fill="grey"
                opacity="0.6" />
            <polygon points="63.837 32.851 63.837 71.657 43.348 65.486 43.348 26.679 63.837 32.851" fill="grey"
                opacity="0.9" />
            <polygon points="35.787 39.907 39.811 39.907 39.811 68.115 61.148 74.541 35.787 74.541 35.787 39.907"
                fill="grey" />
            <polygon points="96.213 74.541 70.732 74.541 92.068 68.115 92.068 39.907 96.213 39.907 96.213 74.541"
                fill="grey" />
            <path
                d="M92.0679,36.3774V68.1227L66.0012,76.054v-.0193L39.8137,68.0035,49.8762,78.066l16.125.0122v.0072h33.75l.06-33.9646Z"
                fill="#044c68" opacity="0.2" />
            <path id="b5661616-2500-4b73-b863-030224272f92" data-name="path27012"
                d="M53.7925,102.5239H49.1443v2.3541h2.3415v11.6931h2.33l-.0237-14.0472M88.856,116.2911H68.1625a8.4713,8.4713,0,0,1-8.6666-8.3644,8.8416,8.8416,0,0,1,8.6666-9.021,8.7152,8.7152,0,0,1,8.69,9.021h-2.33c-.0474-3.4363-2.3794-6.689-6.36-6.6669a6.4006,6.4006,0,0,0-6.3473,6.6669,6.2991,6.2991,0,0,0,6.3473,6.0087H88.856v2.3557"
                fill="#fff" />
            <path id="a8f594ca-5be3-497a-87e9-b7bcd9564306" data-name="path27010"
                d="M57.1655,98.8819H51.51v2.3558h3.3033l.0238,15.3334h2.3288V98.8819m31.69,13.7166H68.1388a5.0131,5.0131,0,0,1-.0269-10.0256,5.2274,5.2274,0,0,1,5.05,5.3538h-2.33a2.6933,2.6933,0,1,0-5.3521,0,2.5958,2.5958,0,0,0,2.6832,2.3414H88.856v2.33"
                fill="#fff" />
        </g>
    </g>
</svg>