<svg xmlns="http://www.w3.org/2000/svg" xmlns:xlink="http://www.w3.org/1999/xlink" width="263" height="132"
    viewBox="0 0 263 132">
    <defs>
        <linearGradient id="8ec93075-f0ae-4075-9250-ecee8fbfd344" x1="114.0429" y1="12.2083" x2="114.0429" y2="12.2083"
            gradientUnits="userSpaceOnUse">
            <stop offset="0" stop-color="#c9aa4c" />
            <stop offset="1" stop-color="#ddbf6b" />
        </linearGradient>
        <linearGradient id="a" x1="111.667" x2="20.246" y1="111.667" y2="20.246" gradientUnits="userSpaceOnUse">
            <stop offset="0" stop-color="#b31217" class="stopColor07758e svgShape" />
            <stop offset="1" stop-color="#e52d27" class="stopColor087f95 svgShape" />
        </linearGradient>
        <linearGradient id="7aa3df6f-4a10-4696-9504-a893d653051c" x1="242.9619" y1="111.9619" x2="151.0381" y2="20.0381"
            xlink:href="#8ec93075-f0ae-4075-9250-ecee8fbfd344" />
        <linearGradient id="b451cd0a-0aa5-4936-8b6d-51eaabc7af45" x1="32.0429" y1="72.2083" x2="32.0429" y2="72.2083"
            xlink:href="#8ec93075-f0ae-4075-9250-ecee8fbfd344" />
        <linearGradient id="94d2473e-e65b-42b1-a807-64541feca330" x1="163.0429" y1="72.2083" x2="163.0429" y2="72.2083"
            xlink:href="#8ec93075-f0ae-4075-9250-ecee8fbfd344" />
    </defs>
    <title>Socialas zinibas</title>
    <g id="8a209a3e-e816-49b5-a48c-a347cfae4214" data-name="Layer 2">
        <g id="95164b4c-009a-4895-bd34-45d9c0c85db5" data-name="Layer 1">
            <path d="M114.0429,12.2083" fill="url(#8ec93075-f0ae-4075-9250-ecee8fbfd344)" />
            <rect width="263" height="132" fill="none" />
            <circle cx="197" cy="66" r="65" fill="url(#a)" />
            <path d="M32.0429,72.2083" fill="url(#b451cd0a-0aa5-4936-8b6d-51eaabc7af45)" />
            <circle cx="66" cy="66" r="69" fill="url(#a)" />
            <path
                d="M99.7088,89.3741a11.99,11.99,0,1,0-16.915-16.9149L62.2717,51.9371l-2.0964,2.0964A18.1793,18.1793,0,0,0,34.4817,79.7271l-2.283,2.283L79.211,129.6538a64.9687,64.9687,0,0,0,37.6165-23.1609Z"
                fill="#332b27" opacity="0.2" />
            <path d="M47.2912,40.0813" fill="#332b27" />
            <circle cx="47.8012" cy="67.353" r="19.4691" fill="none" stroke="#fff" stroke-miterlimit="10"
                stroke-width="4" />
            <path
                d="M87.1262,36.375,85.334,38.0284A9.6567,9.6567,0,1,0,71.14,51.1235L66.1257,55.75,82.8142,72.438A11.9887,11.9887,0,1,1,99.73,89.3536l17.116,17.116a64.7116,64.7116,0,0,0,12.8975-27.7274Z"
                fill="#332b27" opacity="0.2" />
            <path
                d="M54.8106,70.5425l-1.458-.6453a4.8584,4.8584,0,0,1-2.7013-3.0986c.0389-.0483.0779-.0965.1161-.1464a11.2052,11.2052,0,0,0,2.0893-6.3845c0-3.655-2.2634-5.0476-5.0554-5.0476s-5.0554,1.3926-5.0554,5.0476a11.1219,11.1219,0,0,0,2.2054,6.531A4.8584,4.8584,0,0,1,42.25,69.8972l-1.458.6453a6.0854,6.0854,0,0,0-3.6224,5.5646v.1443A13.2833,13.2833,0,0,0,47.8012,81.37a13.4234,13.4234,0,0,0,10.6317-5.1189v-.1443A6.0854,6.0854,0,0,0,54.8106,70.5425Z"
                fill="#fff" />
            <circle cx="91.6515" cy="79.8361" r="12.0164" fill="none" stroke="#fff" stroke-miterlimit="10"
                stroke-width="3" />
            <path
                d="M95.98,81.8728l-.9-.3986a3,3,0,0,1-1.6683-1.9136c.024-.03.0481-.06.0717-.09a6.92,6.92,0,0,0,1.29-3.9429,3.1221,3.1221,0,0,0-6.2442,0,6.8686,6.8686,0,0,0,1.362,4.0334,3,3,0,0,1-1.6683,1.9135l-.9.3986a3.7582,3.7582,0,0,0-2.2371,3.4366v.0891A8.2035,8.2035,0,0,0,91.6515,88.56a8.29,8.29,0,0,0,6.5659-3.1613v-.0891A3.7582,3.7582,0,0,0,95.98,81.8728Z"
                fill="#fff" />
            <line x1="65.8049" y1="71.8735" x2="80.5511" y2="76.8376" fill="none" stroke="#fff" stroke-miterlimit="10"
                stroke-width="4" />
            <line x1="63.7241" y1="56.4768" x2="70.9591" y2="50.4307" fill="none" stroke="#fff" stroke-miterlimit="10"
                stroke-width="4" />
            <circle cx="78.5656" cy="44.3092" r="10.1617" fill="none" stroke="#fff" stroke-miterlimit="10"
                stroke-width="3" />
            <path
                d="M82.1527,46.008l-.7462-.33a2.4863,2.4863,0,0,1-1.3824-1.5857c.02-.0247.04-.0494.0594-.0749A5.7344,5.7344,0,0,0,81.1528,40.75a2.5872,2.5872,0,0,0-5.1743,0,5.6917,5.6917,0,0,0,1.1286,3.3423,2.4864,2.4864,0,0,1-1.3824,1.5857l-.7462.33a3.1143,3.1143,0,0,0-1.8538,2.8477V48.93a6.7979,6.7979,0,0,0,5.4409,2.62,6.87,6.87,0,0,0,5.4409-2.62v-.0739A3.1143,3.1143,0,0,0,82.1527,46.008Z"
                fill="#fff" />
            <path d="M163.0429,72.2083" fill="url(#94d2473e-e65b-42b1-a807-64541feca330)" />
            <path
                d="M230.7088,89.3741a11.99,11.99,0,1,0-16.915-16.9149l-20.522-20.5221-2.0964,2.0964a18.1793,18.1793,0,0,0-25.6936,25.6935l-2.283,2.283,47.0122,47.6438a64.9687,64.9687,0,0,0,37.6165-23.1609Z"
                fill="#995e17" opacity="0.2" />
            <path d="M178.2912,40.0813" fill="#332b27" />
            <circle cx="178.8012" cy="67.353" r="19.4691" fill="none" stroke="#fff" stroke-miterlimit="10"
                stroke-width="4" />
            <path
                d="M218.1262,36.375l-1.7922,1.6534A9.6567,9.6567,0,1,0,202.14,51.1235L197.1257,55.75,213.8142,72.438A11.9887,11.9887,0,1,1,230.73,89.3536l17.116,17.116a64.7116,64.7116,0,0,0,12.8975-27.7274Z"
                fill="#995e17" opacity="0.2" />
            <path
                d="M185.8106,70.5425l-1.458-.6453a4.8584,4.8584,0,0,1-2.7013-3.0986c.0389-.0483.0779-.0965.1161-.1464a11.2052,11.2052,0,0,0,2.0893-6.3845c0-3.655-2.2634-5.0476-5.0554-5.0476s-5.0554,1.3926-5.0554,5.0476a11.1219,11.1219,0,0,0,2.2054,6.531,4.8584,4.8584,0,0,1-2.7013,3.0985l-1.458.6453a6.0854,6.0854,0,0,0-3.6224,5.5646v.1443A13.2833,13.2833,0,0,0,178.8012,81.37a13.4234,13.4234,0,0,0,10.6317-5.1189v-.1443A6.0854,6.0854,0,0,0,185.8106,70.5425Z"
                fill="#fff" />
            <circle cx="222.6515" cy="79.8361" r="12.0164" fill="none" stroke="#fff" stroke-miterlimit="10"
                stroke-width="3" />
            <path
                d="M226.98,81.8728l-.9-.3986a3,3,0,0,1-1.6683-1.9136c.024-.03.0481-.06.0717-.09a6.92,6.92,0,0,0,1.29-3.9429,3.1221,3.1221,0,0,0-6.2442,0,6.8686,6.8686,0,0,0,1.362,4.0334,3,3,0,0,1-1.6683,1.9135l-.9.3986a3.7582,3.7582,0,0,0-2.2371,3.4366v.0891a8.2035,8.2035,0,0,0,6.5659,3.1613,8.29,8.29,0,0,0,6.5659-3.1613v-.0891A3.7582,3.7582,0,0,0,226.98,81.8728Z"
                fill="#fff" />
            <line x1="196.8049" y1="71.8735" x2="211.5511" y2="76.8376" fill="none" stroke="#fff" stroke-miterlimit="10"
                stroke-width="4" />
            <line x1="194.7241" y1="56.4768" x2="201.9591" y2="50.4307" fill="none" stroke="#fff" stroke-miterlimit="10"
                stroke-width="4" />
            <circle cx="209.5656" cy="44.3092" r="10.1617" fill="none" stroke="#fff" stroke-miterlimit="10"
                stroke-width="3" />
            <path
                d="M213.1527,46.008l-.7462-.33a2.4863,2.4863,0,0,1-1.3824-1.5857c.02-.0247.04-.0494.0594-.0749a5.7344,5.7344,0,0,0,1.0692-3.2673,2.5872,2.5872,0,0,0-5.1743,0,5.6917,5.6917,0,0,0,1.1286,3.3423,2.4864,2.4864,0,0,1-1.3824,1.5857l-.7462.33a3.1143,3.1143,0,0,0-1.8538,2.8477V48.93a6.7979,6.7979,0,0,0,5.4409,2.62,6.87,6.87,0,0,0,5.4409-2.62v-.0739A3.1143,3.1143,0,0,0,213.1527,46.008Z"
                fill="#fff" />
        </g>
    </g>
</svg>