<?xml version="1.0" encoding="utf-8"?>
<!-- Generator: Adobe Illustrator 24.1.0, SVG Export Plug-In . SVG Version: 6.00 Build 0)  -->
<svg xmlns="http://www.w3.org/2000/svg" xmlns:xlink="http://www.w3.org/1999/xlink" width="263" height="132"
	viewBox="0 0 263 132">
	<style type="text/css">
		.st0 {
			fill: url(#SVGID_1_);
		}

		.st1 {
			opacity: 0.4;
			fill-rule: evenodd;
			clip-rule: evenodd;
			fill: #044C68;
			enable-background: new;
		}

		.st2 {
			fill: #FFFFFF;
		}

		.st3 {
			fill: none;
		}

		.st4 {
			fill: url(#SVGID_2_);
		}

		.st5 {
			opacity: 0.2;
			fill-rule: evenodd;
			clip-rule: evenodd;
			enable-background: new;
		}

		.st6 {
			fill: #FFFFF1;
		}

		.st7 {
			fill: #0039A6;
		}

		.st8 {
			fill: #D52B1E;
		}

		.st9 {
			opacity: 0.2;
			enable-background: new;
		}
	</style>
	<g id="_x33_0249e3e-aee5-4816-9251-1e9ec3b842c5">
		<g id="_x35_f08f5e4-595a-4488-9166-b39ddb5457dc">

			<linearGradient id="SVGID_1_" gradientUnits="userSpaceOnUse" x1="247.1264" y1="17.8736" x2="150.1413"
				y2="114.8587" gradientTransform="matrix(1 0 0 -1 0 134)">
				<stop offset="0" style="stop-color:#417387" />
				<stop offset="1" style="stop-color:#537A8C" />
			</linearGradient>
			<circle class="st0" cx="197" cy="66" r="69" />
			<path class="st1" d="M208,130c26.7-4.6,47.7-25.3,52.8-51.9l-35.7-35.7l-1.9,1.9c-6.8-6.4-15.8-9.9-25.2-9.8
			c-18.6,0-33.8,13.1-33.8,29.2c0,10.2,6,19.1,15.2,24.4l-1.2,1.2l8.9,8.9c1.1,2.7-3.2,7.7-3.2,7.7L208,130z" />
			<path class="st2"
				d="M198.1,37.3c17.1,0,30.9,11.7,30.9,26.1c-0.1,6.6-2.9,12.9-7.9,17.3c-5.5,5.1-12.6,8.1-20.1,8.6l-2.3,0.2
			l-1.3,1.9c-1.4,1.9-3.1,3.6-5,5c0.1-1.3,0.1-2.7-0.1-4l-0.4-3.3l-3.3-0.9c-12.9-3.5-21.5-13.5-21.5-24.8
			C167.2,49,181,37.3,198.1,37.3 M198.1,32.3c-19.9,0-35.9,13.9-35.9,31.1c0,13.9,10.6,25.7,25.2,29.7c0.5,3.7-0.5,7.5-2.7,10.5
			c-1.3,1.7-1,2.5,0.1,2.5c3,0,12.5-5.5,16.8-11.7c18.2-1.5,32.5-14.8,32.5-30.9C234.1,46.3,218,32.3,198.1,32.3L198.1,32.3z" />
			<path class="st2" d="M185.4,75.7c-1.2,0.1-2.4-0.3-3.4-1c-0.8-0.6-1.3-1.6-1.3-2.6c0-0.4,0-0.8,0.1-1.2c0.1-0.4,0.2-0.9,0.3-1.5
			l2.2-9.4H180l0.4-1.8h3.3l1.3-5.4h5.7l-1.2,5.4h4.8l-0.4,1.8h-4.8l-2.2,9.4c-0.1,0.3-0.2,0.7-0.2,1.2c-0.1,0.3-0.1,0.6-0.1,0.9
			c-0.1,0.5,0.1,1.1,0.6,1.4c0.5,0.3,1.1,0.4,1.7,0.4c0.5,0,1-0.1,1.5-0.2c0.5-0.1,0.9-0.2,1.4-0.4l-0.4,1.6c-1,0.5-2.1,0.8-3.1,1.1
			C187.3,75.6,186.3,75.7,185.4,75.7z" />
			<path class="st2" d="M216.9,72.6l-0.4,1.6c-1.2,0.5-2.1,0.8-2.8,1.1c-0.8,0.3-1.6,0.4-2.4,0.4c-1.2,0.1-2.4-0.3-3.3-1.1
			c-0.8-0.7-1.2-1.6-1.2-2.6c0-0.3,0-0.7,0-1.1c0.1-0.6,0.2-1.1,0.3-1.6l1.3-4.7c0.1-0.5,0.2-1,0.3-1.4c0.1-0.3,0.1-0.7,0.1-1
			c0-0.5-0.1-1-0.4-1.3c-0.4-0.4-0.9-0.5-1.4-0.5c-0.6,0.1-1.2,0.2-1.7,0.5c-0.9,0.4-1.8,1-2.5,1.7l-2.9,12.8H194l5.2-22.6
			c0-0.2,0.1-0.4,0.1-0.6c0-0.1,0-0.3,0-0.4c0-0.3-0.1-0.7-0.2-1c-0.2-0.3-0.4-0.5-0.6-0.6c-0.3-0.2-0.6-0.3-1-0.3
			c-0.4-0.1-0.8-0.1-1.3-0.2l0.3-1.3l9.3-0.5l0.2,0.3l-2.8,12.3h0.1c1-0.9,2.2-1.7,3.4-2.3c1.2-0.6,2.5-0.8,3.8-0.8
			c1.1-0.1,2.2,0.3,3.1,1.1c0.7,0.7,1.1,1.6,1.1,2.6c0,0.3,0,0.7-0.1,1.1c0,0.5-0.1,1.1-0.3,1.6l-1.3,5c-0.1,0.5-0.2,0.9-0.3,1.4
			c-0.1,0.4-0.1,0.8-0.1,1.2c-0.1,0.5,0.1,1,0.5,1.4c0.5,0.3,1,0.4,1.6,0.4c0.4,0,0.8-0.1,1.2-0.2C216.3,72.8,216.6,72.7,216.9,72.6
			z" />
			<rect class="st3" width="263" height="132" />

			<linearGradient id="SVGID_2_" gradientUnits="userSpaceOnUse" x1="111.667" y1="22.333" x2="20.246"
				y2="113.754" gradientTransform="matrix(1 0 0 -1 0 134)">
				<stop offset="0" stop-color="#b31217" class="stopColor07758e svgShape" />
				<stop offset="1" stop-color="#e52d27" class="stopColor087f95 svgShape" />
			</linearGradient>
			<circle class="st4" cx="66" cy="66" r="69" />
			<g>
				<path class="st5" d="M94.3,42.5l-1.9,1.9c-6.8-6.4-15.8-9.9-25.2-9.8c-18.6,0-33.8,13.1-33.8,29.2c0,7.3,3.1,13.9,8.1,19
				c0.1,0,0.1,0,0.2,0c2,0,3.3,0.9,4.1,2.2c0.6,0.6,0.9,1.4,1.1,2.2c0.5,0.3,1.1,0.7,1.6,1l-0.7,0.7c0.6,0.7,1,1.5,1.2,2.4l7.1,7.1
				C57.3,101,53,106,53,106L77.1,130c26.7-4.6,47.7-25.3,52.8-51.9L94.3,42.5z" />
				<path class="st6" d="M99.7,53.6c-3.3-6.5-7.2-13.3-14.9-14.8c-2.1-0.4-3.2-1.7-3.5-3.3H53.2c-0.3,1.2-1,2.3-2.3,3
				c-4.6,2.6-10.9,4.1-13.1,9.7c-0.4,1-1,1.9-1.7,2.5c-0.6,1.7-0.7,3.4-1.1,5.1h64.5C99.4,55.1,99.4,54.3,99.7,53.6z" />
				<path class="st7" d="M100.5,68.1c0.3-2.2,0.8-4.3,1.4-6.3c-1-0.9-1.5-2.2-1.6-3.5c-0.5-0.7-0.7-1.5-0.8-2.4H34.9
				c0,0.1,0,0.1,0,0.2c-0.5,2.3-1.6,4.4-3.1,6.2c0.2,1.3,0.5,2.6,0.9,3.9c0.4,1.3,0.3,2.5-0.2,3.4c0.7,2,1.5,3.9,2.6,5.8
				c0.2,0.3,0.4,0.7,0.5,1h63.2C99.7,73.6,100.1,70.8,100.5,68.1z" />
				<path class="st8" d="M35.6,76.2c0.3,0.7,0.3,1.5,0.2,2.1c0.9,1.1,1.9,2.4,2.9,3.7c1.9,0.7,3.7,1.6,5.4,2.8c1.1,0.8,1.4,1,0.9,0.7
				c-0.3-0.2-0.2-0.2,0.2,0.2c0.6,0.4,1.2,0.9,1.7,1.3c0.9,0.8,1.6,1.7,2.2,2.7c0,0,0,0,0,0c1.4,0.1,2.8,0.3,4.2,0.5
				c2.7,0.4,3.8,2.5,3.6,4.5c0.8,0.4,1.4,1.1,1.8,1.8h4.7c0,0,0,0,0,0c0,0,0.1,0,0.1-0.1c0,0,0,0,0-0.1c0.6-0.6,1.4-1,2.2-1.3
				c0.4-0.1,0.9-0.1,1.3-0.2c0.3,0,0.6,0,1,0.1c0.6-0.3,1.3-0.4,2.1-0.4c0.3,0,0.6,0,0.8,0.1c7.9-4.1,18.8-6.8,25-13.5
				c1.4-1.5,2.3-3.2,2.9-5H35.6z" />
			</g>
			<polygon class="st9" points="61,89.2 67.1,95.4 62.1,98.4 57.4,98.8 		" />
			<path class="st2"
				d="M67.2,37.3c17.1,0,30.9,11.7,30.9,26.1C98,70,95.2,76.3,90.3,80.8c-5.5,5.1-12.6,8.1-20.1,8.6l-2.3,0.2
			l-1.3,1.9c-1.4,1.9-3.1,3.6-5,5c0.1-1.3,0.1-2.7-0.1-4L61,89.1l-3.3-0.9c-12.9-3.5-21.5-13.5-21.5-24.8
			C36.2,49,50.1,37.3,67.2,37.3 M67.2,32.3c-19.9,0-35.9,13.9-35.9,31.1c0,13.9,10.6,25.7,25.2,29.7c0.5,3.7-0.5,7.5-2.7,10.5
			c-1.3,1.7-1,2.5,0.1,2.5c3,0,12.5-5.5,16.8-11.7c18.2-1.5,32.5-14.8,32.5-30.9C103.1,46.3,87,32.3,67.2,32.3L67.2,32.3z" />
		</g>
	</g>
</svg>